<?xml version="1.0" standalone="no"?>
<!DOCTYPE svg PUBLIC "-//W3C//DTD SVG 20010904//EN"
 "http://www.w3.org/TR/2001/REC-SVG-20010904/DTD/svg10.dtd">
<svg version="1.0" xmlns="http://www.w3.org/2000/svg"
 width="700.000000pt" height="700.000000pt" viewBox="0 0 700.000000 700.000000"
 preserveAspectRatio="xMidYMid meet">
<metadata>
Created by potrace 1.11, written by Peter Selinger 2001-2013
</metadata>
<g transform="translate(0.000000,700.000000) scale(0.100000,-0.100000)"
fill="#000000" stroke="none">
<path d="M3307 6995 c-1 -2 -44 -6 -95 -9 -51 -4 -102 -9 -112 -11 -10 -2 -43
-6 -72 -9 -29 -4 -64 -8 -78 -11 -14 -3 -52 -10 -85 -15 -165 -27 -444 -108
-630 -182 -335 -135 -599 -283 -870 -486 -544 -410 -959 -995 -1189 -1675 -33
-99 -89 -299 -101 -365 -3 -15 -7 -38 -10 -52 -11 -51 -32 -179 -39 -240 -28
-214 -28 -680 -1 -855 3 -16 7 -50 10 -75 3 -25 7 -56 10 -70 3 -14 8 -43 10
-65 3 -22 8 -48 11 -57 3 -9 7 -25 9 -36 74 -388 275 -864 516 -1225 393 -589
927 -1022 1604 -1300 170 -69 500 -169 638 -192 12 -2 49 -9 82 -14 33 -6 83
-13 110 -17 28 -3 61 -7 75 -9 173 -25 672 -25 783 0 12 2 42 6 67 9 62 6 220
33 305 52 99 23 318 85 330 94 6 4 24 10 40 14 54 13 248 92 380 156 773 370
1340 953 1693 1740 105 234 212 580 247 800 4 25 9 54 11 65 28 146 41 346 38
590 -2 138 -5 261 -7 275 -3 14 -8 57 -12 95 -4 39 -9 77 -10 86 -2 9 -6 32
-9 50 -3 19 -12 70 -21 114 -9 44 -18 91 -21 105 -2 14 -18 75 -35 135 -178
643 -530 1228 -995 1655 -112 103 -139 126 -239 201 -548 414 -1199 668 -1857
725 -61 6 -476 13 -481 9z m448 -429 c91 -8 114 -11 245 -31 108 -17 103 -16
225 -45 620 -146 1232 -530 1647 -1035 343 -417 576 -922 657 -1425 6 -36 13
-76 16 -89 2 -13 7 -54 10 -90 3 -36 8 -82 10 -101 6 -48 7 -460 1 -488 -3
-12 -8 -57 -11 -100 -20 -256 -118 -629 -237 -894 -104 -234 -285 -534 -416
-690 -84 -99 -113 -132 -176 -198 -190 -199 -388 -356 -661 -526 -85 -53 -315
-169 -400 -201 -22 -8 -54 -21 -71 -29 -103 -45 -360 -117 -534 -149 -394 -73
-861 -65 -1230 21 -36 9 -74 17 -85 20 -138 28 -418 135 -615 233 -326 163
-563 332 -810 580 -278 279 -478 576 -649 969 -58 133 -135 360 -156 460 -2 9
-9 40 -15 67 -19 82 -20 85 -40 220 -27 182 -33 265 -32 460 0 156 3 208 17
350 8 81 36 244 57 335 11 47 21 94 24 105 13 64 72 239 123 369 167 418 493
871 836 1162 39 32 72 62 75 65 3 3 37 29 75 57 39 28 75 55 80 59 42 31 104
73 110 73 3 0 21 11 38 24 93 70 376 212 560 281 193 72 470 143 632 161 33 3
69 8 79 10 10 2 58 6 105 10 47 4 87 7 88 8 6 4 361 -2 428 -8z"/>
<path d="M3403 5705 c-55 -28 -95 -77 -110 -135 -12 -43 -10 -2109 1 -2165 5
-22 20 -56 34 -75 35 -47 1146 -1157 1196 -1195 51 -39 147 -45 210 -13 93 46
142 167 104 255 -20 47 -43 70 -592 623 l-531 535 0 995 c1 547 -3 1014 -8
1038 -6 32 -21 57 -55 92 -72 74 -158 90 -249 45z"/>
</g>
</svg>
